<svg xmlns="http://www.w3.org/2000/svg" fill="white" height="24" viewBox="0 -960 960 960" width="24"><path d="M309.616-353.847 351.769-396l-54.001-54.001h223.696L467.463-396l42.153 42.153L635.769-480 509.616-606.153 467.463-564l54.001 54.001H297.768L351.769-564l-42.153-42.153L183.463-480l126.153 126.153ZM181.925-180.001q-30.308 0-51.308-21-20.999-21-20.999-51.308v-455.382q0-30.308 20.999-51.308 21-21 51.308-21h455.382q30.308 0 51.308 21t21 51.308v183.077l140.767-140.768v370.764L709.615-435.386v183.077q0 30.308-21 51.308t-51.308 21H181.925Zm0-59.999h455.382q5.386 0 8.847-3.462 3.462-3.462 3.462-8.847v-455.382q0-5.385-3.462-8.847-3.461-3.462-8.847-3.462H181.925q-5.385 0-8.847 3.462-3.462 3.462-3.462 8.847v455.382q0 5.385 3.462 8.847Q176.54-240 181.925-240Zm-12.309 0v-480 480Z"/></svg>